<?xml version="1.0" encoding="utf-8"?>
<!-- Generator: Adobe Illustrator 18.1.1, SVG Export Plug-In . SVG Version: 6.00 Build 0)  -->
<!DOCTYPE svg PUBLIC "-//W3C//DTD SVG 1.1//EN" "http://www.w3.org/Graphics/SVG/1.1/DTD/svg11.dtd">
<svg version="1.1" id="Layer_1" xmlns="http://www.w3.org/2000/svg" xmlns:xlink="http://www.w3.org/1999/xlink" x="0px" y="0px"
	 viewBox="87.1 265.2 86 86" enable-background="new 87.1 265.2 86 86" xml:space="preserve">
<path d="M169.8,304.8v-26.4c0-5.3-3.5-13.2-13.2-13.2c-8.2,0-11.9,5.6-12.9,10.5c-3.9,1.3-6.8,4.9-6.8,9.3h19.6
	c0-4.1-2.5-7.6-6.1-9.1c0.6-1.9,2.2-4.1,6.2-4.1c6,0,6.6,5.1,6.6,6.6v26.5H90.4c-1.8,0-3.3,1.5-3.3,3.3v3.3c0,1.8,1.5,3.3,3.3,3.3
	v9.9c0,7.2,6,14.2,13,16.1c-0.3,1.6-1.2,3.8-3.1,3.8c-1.8,0-3.3,1.5-3.3,3.3c0,1.8,1.5,3.3,3.3,3.3c5.7,0,9.1-4.8,9.8-9.9h40
	c0.7,5.1,4.1,9.9,9.8,9.9c1.8,0,3.3-1.5,3.3-3.3c0-1.8-1.5-3.3-3.3-3.3c-2,0-2.8-2.2-3.1-3.8c7-1.8,13-8.9,13-16.1v-9.9
	c1.8,0,3.3-1.5,3.3-3.3v-3.3C173.2,306.3,171.7,304.8,169.8,304.8z M163.2,324.7c0,4.7-5.2,9.9-9.9,9.9H107c-4.6,0-9.9-5.3-9.9-9.9
	v-9.9h66.2L163.2,324.7L163.2,324.7z M138.3,288.7l0.2-0.8c0.2-0.9,1.1-1.4,2-1.2s1.4,1.1,1.2,2l-0.2,0.8c-0.2,0.8-0.9,1.3-1.6,1.3
	c-0.1,0-0.3,0-0.4,0C138.6,290.5,138.1,289.6,138.3,288.7z M136.7,295.2l0.3-1.3c0.2-0.9,1.1-1.4,2-1.2s1.4,1.1,1.2,2l-0.3,1.3
	c-0.2,0.8-0.9,1.3-1.6,1.3c-0.1,0-0.3,0-0.4,0C137,296.9,136.4,296,136.7,295.2z M135.2,301.1l0.2-0.8c0.2-0.9,1.1-1.4,2-1.2
	c0.9,0.2,1.4,1.1,1.2,2l-0.2,0.8c-0.2,0.8-0.9,1.3-1.6,1.3c-0.1,0-0.3,0-0.4,0C135.5,302.9,134.9,302,135.2,301.1z M155.1,288.7
	c0.2,0.9-0.3,1.8-1.2,2c-0.1,0-0.3,0-0.4,0c-0.7,0-1.4-0.5-1.6-1.3l-0.2-0.8c-0.2-0.9,0.3-1.8,1.2-2c0.9-0.2,1.8,0.3,2,1.2
	L155.1,288.7z M156.7,295.2c0.2,0.9-0.3,1.8-1.2,2c-0.1,0-0.3,0-0.4,0c-0.7,0-1.4-0.5-1.6-1.3l-0.3-1.3c-0.2-0.9,0.3-1.8,1.2-2
	c0.9-0.2,1.8,0.3,2,1.2L156.7,295.2z M156,299.1c0.9-0.2,1.8,0.3,2,1.2l0.2,0.8c0.2,0.9-0.3,1.8-1.2,2c-0.1,0-0.3,0-0.4,0
	c-0.7,0-1.4-0.5-1.6-1.3l-0.2-0.8C154.6,300.2,155.1,299.3,156,299.1z M145,289.1v-0.8c0-0.9,0.7-1.7,1.7-1.7c0.9,0,1.7,0.7,1.7,1.7
	v0.8c0,0.9-0.7,1.7-1.7,1.7C145.8,290.8,145,290,145,289.1z M145,294.3c0-0.9,0.7-1.7,1.7-1.7c0.9,0,1.7,0.7,1.7,1.7v1.3
	c0,0.9-0.7,1.7-1.7,1.7c-0.9,0-1.7-0.7-1.7-1.7V294.3z M145,300.7c0-0.9,0.7-1.7,1.7-1.7c0.9,0,1.7,0.7,1.7,1.7v0.8
	c0,0.9-0.7,1.7-1.7,1.7c-0.9,0-1.7-0.7-1.7-1.7V300.7z"/>
</svg>
