<?xml version="1.0" encoding="utf-8"?>
<!-- Generator: Adobe Illustrator 18.1.1, SVG Export Plug-In . SVG Version: 6.00 Build 0)  -->
<!DOCTYPE svg PUBLIC "-//W3C//DTD SVG 1.1//EN" "http://www.w3.org/Graphics/SVG/1.1/DTD/svg11.dtd">
<svg version="1.1" id="Layer_1" xmlns="http://www.w3.org/2000/svg" xmlns:xlink="http://www.w3.org/1999/xlink" x="0px" y="0px"
	 viewBox="-202.1 264.6 111.5 86.6" enable-background="new -202.1 264.6 111.5 86.6" xml:space="preserve">
<path d="M-105.6,264.6h-79.3l0.1,31.5l-17.3,20.9v19.4c0,0,2.2,0,3.8,2.4c1.6,2.4,3.5,2.5,3.5,2.5v6.6c0,0,3.3,3.3,7.7,3.3
	c3.5,0,6.3-3.2,6.3-3.2v-7.3c0,0,1.1,2.5,3.9,2.8c2.8,0.3,5-3.9,7.6-3.9c2.5,0,4.4,4.1,7.3,4.4c2.8,0.3,4.4-4.4,7.4-4.4
	s4.7,4.3,7.7,4.4c3,0.2,4.1-4.7,7.3-4.6c3.2,0.2,3.6,4.3,6.8,4.3c3.2,0,4.9-4.4,8-4.3c3.2,0.2,3.8,4.4,7.1,4.4s4.9-3.6,4.9-3.6v8.2
	c0,0,4.1,2.4,7.4,2.4c3.3,0,6.6-2.4,6.6-2.4v-7.1c0,0,2.8-0.8,3.9-2.8c1.5-2.9,4.3-2.7,4.3-2.7v-19.5l-15-20.7L-105.6,264.6
	L-105.6,264.6z M-181.2,268.4h71.3V282c-0.5-0.7-2.1-0.6-3.5-0.6h-27.2c-2,0-3.8,1-4.9,2.5c-1.1-1.6-2.9-2.5-4.9-2.5h-27.1
	c-1.4,0-2.9-0.1-3.7,0.6V268.4z M-113,288.1c0,0,0,8.7,0,8.9c-0.2,1.5-1.3,2.8-2.9,2.8h-22.6c-1.7,0-3.3-1.7-3.3-3.3v-8.3
	c0-1.7,1.7-2.8,3.3-2.8h21.6h1C-114.2,285.3-113,286.4-113,288.1z M-149.4,287.9L-149.4,287.9l-0.1,8.3c0,1.7-1.4,3.3-3.1,3.3h-22.6
	c-1.6,0-2.9-1.3-3.1-2.8c0-0.2,0-8.9,0-8.9c0-1.7,1.4-2.8,3.1-2.8h22.7C-150.8,285.1-149.4,286.2-149.4,287.9z M-95,333.9
	c-2.2,0-2.7,2.4-4.5,3.9c-0.6,0.5-2,0.9-2,0.9v6.2c0,1.3-2.3,2.5-4.3,2.5s-4.3-1.1-4.3-2.5v-11c0,0,0,0-0.1,0
	c-0.9,0-1.5,0.3-2.1,0.7c-1.8,1.4-2.5,4.1-5.2,4.1c-3.8,0-3.8-4.9-7.4-4.9c-3.8,0-3.8,4.9-7.4,4.9c-3.7,0-3.7-4.9-7.3-4.9
	c-3.7,0-3.7,4.9-7.3,4.9s-3.7-4.9-7.3-4.9c-3.7,0-3.7,4.9-7.3,4.9c-3.7,0-3.7-4.9-7.3-4.9c-3.7,0-3.7,4.9-7.3,4.9
	c-2.5,0-3.2-2.3-4.7-3.8c-0.6-0.5-2.3-1.1-2.3-1.1v11.1c0,1.3-2.3,2.5-4.3,2.5s-4.6-1.1-4.6-2.4v-6.2h0.4c-1.1,0-1.4-0.4-2-1.1
	c-1.5-1.5-2.3-3.9-4.9-3.9v-10H-95V333.9z M-94.5,318.7h-103.9l15.4-18.4l0.3-0.4c1,1.9,2.9,3.2,5.2,3.2h27.2c1.8,0,3.7-1,4.9-2.5
	c1.1,1.5,2.9,2.5,4.9,2.5h27c2.3,0,4.3-1.3,5.3-3.2L-94.5,318.7L-94.5,318.7z"/>
</svg>
