<?xml version="1.0" encoding="utf-8"?>
<!-- Generator: Adobe Illustrator 18.1.1, SVG Export Plug-In . SVG Version: 6.00 Build 0)  -->
<!DOCTYPE svg PUBLIC "-//W3C//DTD SVG 1.1//EN" "http://www.w3.org/Graphics/SVG/1.1/DTD/svg11.dtd">
<svg version="1.1" id="Layer_1" xmlns="http://www.w3.org/2000/svg" xmlns:xlink="http://www.w3.org/1999/xlink" x="0px" y="0px"
	 viewBox="361.8 265 106.3 85.8" enable-background="new 361.8 265 106.3 85.8" xml:space="preserve">
<g id="Layer_8">
	<path d="M465.6,265H364.3c-1.4,0-2.5,1.1-2.5,2.5v69.9c0,1.4,1.1,2.5,2.5,2.5h38.1v6c0,0.1,0,0.2,0,0.3h-5.5c-1.3,0-2.3,1-2.3,2.3
		c0,1.3,1,2.3,2.3,2.3h37.3c1.3,0,2.3-1,2.3-2.3c0-1.3-1-2.3-2.3-2.3h-5.5c0-0.1,0-0.2,0-0.3v-6h36.9c1.4,0,2.5-1.1,2.5-2.5v-69.9
		C468.1,266.2,467,265,465.6,265z M461,326.5c0,1.4-1.1,2.5-2.5,2.5h-87.1c-1.4,0-2.5-1.1-2.5-2.5v-53c0-1.4,1.1-2.5,2.5-2.5h87.1
		c1.4,0,2.5,1.1,2.5,2.5V326.5z"/>
</g>
</svg>
