<?xml version="1.0" encoding="utf-8"?>
<!-- Generator: Adobe Illustrator 18.1.1, SVG Export Plug-In . SVG Version: 6.00 Build 0)  -->
<!DOCTYPE svg PUBLIC "-//W3C//DTD SVG 1.1//EN" "http://www.w3.org/Graphics/SVG/1.1/DTD/svg11.dtd">
<svg version="1.1" id="Capa_1" xmlns="http://www.w3.org/2000/svg" xmlns:xlink="http://www.w3.org/1999/xlink" x="0px" y="0px"
	 viewBox="0 0 201.1 105.1" enable-background="new 0 0 201.1 105.1" xml:space="preserve">
<g>
	<g>
		<g>
			<g>
				<g>
					<path fill="#FFB819" d="M180.5,5.3c-3.5,0-6.7,1.5-9,3.9l7.7,20.4c0.4,0,0.8,0.1,1.3,0.1c6.8,0,12.2-5.5,12.2-12.2
						C192.7,10.8,187.3,5.3,180.5,5.3z"/>
					<g>
						<path fill="#5C6670" d="M184.2,42.7L169.1,2.9C168.6,1.5,167.2,0,165,0l0,0c-2.1,0-3.5,1.3-4.1,2.5l-13,32L136,2.9
							C135.5,1.5,134,0,131.9,0l0,0c-2.1,0-3.5,1.3-4.1,2.5l-16.3,40.2c-0.7,1.8,0.1,3.8,1.9,4.5c1.8,0.7,3.8-0.1,4.5-1.9l13.8-34.2
							l12.9,34.1c0,0,0,0,0,0.1c0.1,0.1,0.1,0.3,0.2,0.4c0,0,0.1,0.1,0.1,0.1c0.1,0.1,0.1,0.2,0.2,0.3c0,0,0.1,0.1,0.1,0.1
							c0.1,0.1,0.2,0.2,0.3,0.3c0,0,0.1,0.1,0.1,0.1c0.1,0.1,0.2,0.2,0.3,0.2c0,0,0,0,0.1,0.1c0.1,0.1,0.2,0.2,0.4,0.2
							c0,0,0.1,0,0.1,0.1c0,0,0.1,0,0.1,0.1c0.1,0,0.1,0.1,0.2,0.1c0,0,0.1,0,0.1,0c0.1,0,0.3,0.1,0.4,0.1c0,0,0.1,0,0.1,0
							c0.2,0,0.3,0,0.4,0l0,0h0c0.2,0,0.4,0,0.5,0c0,0,0.1,0,0.1,0c0.1,0,0.3-0.1,0.4-0.1c0,0,0.1,0,0.1,0c1-0.4,1.7-1.1,2-2
							l13.8-34.1l12.9,34.1c0.5,1.4,1.8,2.2,3.2,2.2c0.4,0,0.8-0.1,1.2-0.2C183.9,46.5,184.8,44.5,184.2,42.7z"/>
						<path fill="#5C6670" d="M91.7,47.4c-0.4,0-0.9-0.1-1.3-0.3c-1.8-0.7-2.6-2.7-1.9-4.5l16.4-40.5c0.7-1.8,2.7-2.6,4.5-1.9
							c1.8,0.7,2.6,2.7,1.9,4.5L94.9,45.2C94.3,46.6,93,47.4,91.7,47.4"/>
					</g>
				</g>
				<g>
					<path fill="#5C6670" d="M0.5,57.8c-0.3,0-0.5,0.2-0.5,0.5l0,11.3c0,0.3,0.2,0.5,0.5,0.5c0.3,0,0.5-0.2,0.5-0.5l0-11.3
						C1,58.1,0.8,57.8,0.5,57.8z"/>
					<path fill="#5C6670" d="M22.2,57.9c-0.3,0-0.5,0.2-0.5,0.5l0,9.7l-7.2-10c-0.2-0.2-0.4-0.2-0.7-0.1l-0.1,0
						c-0.1,0.1-0.2,0.2-0.2,0.4l0,11.2c0,0.3,0.2,0.5,0.5,0.5s0.5-0.2,0.5-0.5l0-9.8l7.1,9.9l0.2,0.2c0.1,0.1,0.2,0.1,0.3,0.1
						c0.3,0,0.5-0.2,0.5-0.5l0-11.2C22.7,58.2,22.5,57.9,22.2,57.9z"/>
					<path fill="#5C6670" d="M44,57.9l-0.1,0l0,0c-0.1,0-0.2,0.1-0.2,0.2L39.4,64l-4.3-5.9L35,58c0,0-0.1-0.1-0.2-0.1l0,0h-0.1
						c-0.3,0-0.5,0.2-0.5,0.5l0,11.3c0,0.3,0.2,0.5,0.5,0.5c0.3,0,0.5-0.2,0.5-0.5l0-9.8l3.8,5.2c0.1,0.1,0.2,0.2,0.4,0.2
						c0.1,0,0.3-0.1,0.4-0.2l3.8-5.2l0,9.8c0,0.3,0.2,0.5,0.5,0.5c0.3,0,0.5-0.2,0.5-0.5l0-11.3C44.5,58.1,44.3,57.9,44,57.9z"/>
					<path fill="#5C6670" d="M60,57.7c-3.3,0-6,2.8-6,6.3c0,3.5,2.7,6.3,6,6.3c3.3,0,6-2.8,6-6.3C65.9,60.5,63.3,57.7,60,57.7z
						 M60,69.3c-2.7,0-5-2.4-5-5.3c0-2.9,2.2-5.3,5-5.3c2.7,0,5,2.4,5,5.3C64.9,66.9,62.7,69.3,60,69.3z"/>
					<path fill="#5C6670" d="M81.4,63.3c0.7-0.6,1.1-1.4,1.1-2.4c0-1.7-1.4-3.1-3.1-3.1h-2.7c-0.3,0-0.5,0.2-0.5,0.5l0,11.3
						c0,0.3,0.2,0.5,0.5,0.5h3.4c1.9,0,3.5-1.6,3.5-3.5C83.6,65.1,82.7,63.8,81.4,63.3z M80.1,69.1h-3l0-5.1h3
						c1.4,0,2.5,1.1,2.5,2.5C82.6,68,81.5,69.1,80.1,69.1z M79.3,63h-2.2l0-4.2h2.2c1.2,0,2.1,1,2.1,2.1C81.4,62.1,80.5,63,79.3,63z
						"/>
					<path fill="#5C6670" d="M93.7,57.8c-0.3,0-0.5,0.2-0.5,0.5l0,11.3c0,0.3,0.2,0.5,0.5,0.5c0.3,0,0.5-0.2,0.5-0.5l0-11.3
						C94.1,58.1,93.9,57.8,93.7,57.8z"/>
					<path fill="#5C6670" d="M113.5,69.1l-5.8,0l0-10.8c0-0.3-0.2-0.5-0.5-0.5c-0.3,0-0.5,0.2-0.5,0.5l0,11.3c0,0.3,0.2,0.5,0.5,0.5
						h6.2c0.3,0,0.5-0.2,0.5-0.5C114,69.4,113.8,69.1,113.5,69.1z"/>
					<path fill="#5C6670" d="M124.2,57.8c-0.3,0-0.5,0.2-0.5,0.5l0,11.3c0,0.3,0.2,0.5,0.5,0.5c0.3,0,0.5-0.2,0.5-0.5l0-11.3
						C124.7,58.1,124.5,57.8,124.2,57.8z"/>
					<path fill="#5C6670" d="M139.9,58.1c-0.1-0.2-0.3-0.3-0.4-0.3l-0.1,0c-0.2,0-0.4,0.1-0.4,0.3l-4.2,11.2c-0.1,0.3,0,0.5,0.2,0.6
						l0,0l0.2,0c0.2,0,0.4-0.2,0.4-0.3l1.1-2.8l5.5,0l1.1,2.9c0.1,0.2,0.3,0.3,0.5,0.3c0.1,0,0.1,0,0.1,0h0.1l0.1,0
						c0.2-0.1,0.3-0.4,0.3-0.6L139.9,58.1z M137,66l2.4-6.3l2.4,6.3H137z"/>
					<path fill="#5C6670" d="M161.7,68.9C161.7,68.9,161.7,68.9,161.7,68.9c-0.1-0.1-0.3-0.6-0.3-1.6c0-1.1-0.6-2.1-1.7-2.8
						c0,0,0,0-0.1,0c1.2-0.6,1.9-1.8,1.9-3.1c0-2-1.6-3.5-3.5-3.5l-3.4,0c-0.3,0-0.5,0.2-0.5,0.5l0,11.3c0,0.3,0.2,0.5,0.5,0.5
						c0.3,0,0.5-0.2,0.5-0.5l0-4.7l2.9,0c0,0,0.1,0,0.4,0.1c0.3,0.1,0.9,0.3,1.3,0.7c0.5,0.5,0.7,1,0.7,1.6c0,1,0.1,1.6,0.3,2
						c0.2,0.4,0.6,0.6,0.9,0.6c0.1,0,0.2,0,0.3-0.1c0.1,0,0.2-0.1,0.2-0.2c0.1-0.1,0.1-0.3,0.1-0.4
						C162.2,69.1,161.9,68.9,161.7,68.9z M155.2,58.8h2.9c1.4,0,2.5,1.1,2.5,2.6c0,1.4-1.1,2.5-2.5,2.5h-2.9L155.2,58.8z"/>
					<path fill="#5C6670" d="M173.4,57.8c-0.3,0-0.5,0.2-0.5,0.5l0,11.3c0,0.3,0.2,0.5,0.5,0.5c0.3,0,0.5-0.2,0.5-0.5l0-11.3
						C173.9,58.1,173.7,57.8,173.4,57.8z"/>
					<path fill="#5C6670" d="M192.4,69.4l-4.2-11.3c-0.1-0.2-0.3-0.3-0.4-0.3l-0.1,0c-0.2,0-0.4,0.1-0.4,0.3L183,69.4
						c-0.1,0.3,0,0.5,0.2,0.6l0,0l0.2,0c0.2,0,0.4-0.2,0.4-0.3l1.1-2.8h5.5l1.1,2.9c0.1,0.2,0.3,0.3,0.5,0.3c0,0,0.1,0,0.1,0l0.1,0
						C192.4,69.9,192.5,69.6,192.4,69.4z M185.3,66l2.4-6.3l2.4,6.3H185.3z"/>
				</g>
				<path fill="#5C6670" d="M19,78.8l0,18.6c0,0.9-0.8,1.7-1.8,1.7c-1,0-1.7-0.8-1.7-1.7l0-13.3l-4.5,6.3c-0.3,0.5-0.9,0.7-1.4,0.7
					h0h0c-0.6,0-1.1-0.2-1.5-0.7l-4.5-6.3l0,13.3c0,0.9-0.8,1.7-1.8,1.7c-0.9,0-1.7-0.8-1.7-1.7l0-18.6c0-0.9,0.8-1.7,1.7-1.7h0.1
					c0.5,0,1.1,0.3,1.4,0.7l6.3,8.7l6.3-8.7c0.3-0.5,0.9-0.7,1.4-0.7h0C18.2,77.1,19,77.9,19,78.8"/>
				<path fill="#5C6670" d="M35.7,93.9H28L26.5,98c-0.3,0.7-0.9,1.1-1.6,1.1c-0.2,0-0.4,0-0.6-0.1c-0.9-0.3-1.4-1.4-1-2.3l7-18.6
					c0.3-0.7,1-1.1,1.7-1.1c0.7,0,1.4,0.4,1.7,1.1l7,18.6c0.3,0.9-0.1,1.9-1,2.3c-0.2,0.1-0.4,0.1-0.6,0.1c-0.7,0-1.4-0.4-1.6-1.1
					L35.7,93.9z M34.4,90.5l-2.6-6.8l-2.6,6.8L34.4,90.5z"/>
				<path fill="#5C6670" d="M48.1,97.4c0,0.9-0.8,1.7-1.7,1.7c-1,0-1.7-0.8-1.7-1.7l0-18.3v0c0-0.5,0.2-1.1,0.7-1.4
					c0.8-0.5,1.9-0.4,2.4,0.4l10.2,14.1l0-13c0-0.9,0.8-1.7,1.7-1.7c0.9,0,1.7,0.8,1.7,1.7l0,18.3c0,0.9-0.8,1.7-1.7,1.7
					c-0.5,0-1-0.3-1.3-0.6c-0.1-0.1-0.1-0.1-0.2-0.2l-10.1-14L48.1,97.4z"/>
				<path fill="#5C6670" d="M84.6,79.8c1.9,2.1,3.2,4.9,3.2,8c0,3.1-1.2,5.9-3.2,8c-1.9,2.1-4.6,3.4-7.5,3.4c-3,0-5.8-1.3-7.7-3.4
					c-2-2-3.1-4.9-3.1-8c0-3.1,1.2-5.9,3.1-8c1.9-2.1,4.7-3.4,7.7-3.4C80,76.4,82.8,77.7,84.6,79.8 M84.2,87.8
					c0-2.1-0.9-4.1-2.1-5.5c-1.3-1.4-3.1-2.2-5-2.2c-2,0-3.8,0.8-5.1,2.2c-1.3,1.4-2.1,3.4-2.1,5.5c0,2.1,0.8,4.1,2.1,5.5
					c1.3,1.4,3.1,2.3,5.1,2.3c1.9,0,3.7-0.8,5-2.3C83.4,91.9,84.2,89.9,84.2,87.8"/>
				<path fill="#5C6670" d="M101.5,99.1c-5.1,0-9.1-4.1-9.1-9.1l0-11.2c0-1,0.8-1.7,1.7-1.7c0.9,0,1.8,0.8,1.8,1.7l0,11.2
					c0,3.1,2.5,5.6,5.6,5.6c3.1,0,5.6-2.5,5.6-5.6l0-11.2c0-1,0.8-1.7,1.8-1.7c1,0,1.7,0.8,1.7,1.7l0,11.2
					C110.7,95,106.6,99.1,101.5,99.1"/>
				<path fill="#5C6670" d="M116.3,97.4l0-18.6c0-1,0.8-1.7,1.7-1.7h0h0.1h10.2c0.9,0,1.7,0.8,1.7,1.7c0,1-0.8,1.8-1.7,1.8l-8.5,0
					l0,5.8l7.3,0c0.9,0,1.7,0.8,1.7,1.7c0,1-0.8,1.8-1.7,1.8l-7.3,0l0,5.8h8.5c0.9,0,1.7,0.8,1.7,1.8c0,0.9-0.8,1.7-1.7,1.7l-10.2,0
					c-0.1,0-0.1,0-0.1,0l0,0C117.1,99.1,116.3,98.4,116.3,97.4"/>
				<path fill="#5C6670" d="M135.3,97.4l0-18.6c0-1,0.8-1.7,1.7-1.7c1,0,1.8,0.8,1.8,1.7l0,7.6l8.2,0l0-7.6c0-1,0.8-1.7,1.7-1.7
					c1,0,1.8,0.8,1.8,1.7l0,18.6c0,1-0.8,1.7-1.8,1.7c-1,0-1.7-0.8-1.7-1.7l0-7.6h-8.2l0,7.6c0,1-0.8,1.7-1.8,1.7
					C136,99.1,135.3,98.4,135.3,97.4"/>
				<path fill="#5C6670" d="M164.6,99.1c-5.1,0-9.1-4.1-9.1-9.1l0-11.2c0-1,0.8-1.7,1.7-1.7c0.9,0,1.8,0.8,1.8,1.7l0,11.2
					c0,3.1,2.5,5.6,5.6,5.6c3.1,0,5.6-2.5,5.6-5.6l0-11.2c0-1,0.8-1.7,1.8-1.7c1,0,1.7,0.8,1.7,1.7l0,11.2
					C173.7,95,169.7,99.1,164.6,99.1"/>
				<path fill="#5C6670" d="M178.9,97.4l0-18.6c0-1,0.8-1.7,1.7-1.7h0h0.1h10.2c0.9,0,1.7,0.8,1.7,1.7c0,1-0.8,1.8-1.7,1.8l-8.5,0
					l0,5.8l7.4,0c0.9,0,1.7,0.8,1.7,1.7c0,1-0.8,1.8-1.7,1.8l-7.4,0l0,5.8h8.5c0.9,0,1.7,0.8,1.7,1.8c0,0.9-0.8,1.7-1.7,1.7h-10.2
					c-0.1,0-0.1,0-0.1,0l0,0C179.6,99.1,178.9,98.4,178.9,97.4"/>
				<path fill="#5C6670" d="M71.6,105.1c-1,0-1.7-0.8-1.7-1.7c0-0.9,0.8-1.8,1.7-1.8l10.7,0c1,0,1.7,0.8,1.7,1.8
					c0,1-0.8,1.7-1.7,1.7L71.6,105.1z"/>
			</g>
		</g>
		<g>
			<path fill-rule="evenodd" clip-rule="evenodd" fill="#5C6670" d="M196.3,94.2c-0.5,0.5-0.8,1.2-0.8,1.9c0,0.7,0.3,1.4,0.8,1.9
				c0.5,0.5,1.2,0.8,1.9,0.8c0.8,0,1.4-0.3,1.9-0.8c0.5-0.5,0.8-1.2,0.8-1.9c0-0.7-0.3-1.4-0.8-1.9c-0.5-0.5-1.2-0.8-1.9-0.8
				C197.4,93.5,196.8,93.7,196.3,94.2z M200.3,98.3c-0.6,0.6-1.3,0.9-2.1,0.9c-0.8,0-1.5-0.3-2.1-0.9c-0.6-0.6-0.9-1.3-0.9-2.1
				c0-0.8,0.3-1.5,0.9-2.1c0.6-0.6,1.3-0.9,2.1-0.9c0.8,0,1.5,0.3,2.1,0.9c0.6,0.6,0.9,1.3,0.9,2.1C201.1,97,200.9,97.7,200.3,98.3z
				"/>
			<path fill="#5C6670" d="M199.2,97.6C199.2,97.6,199.2,97.6,199.2,97.6c0,0-0.1-0.2-0.1-0.5c0-0.3-0.2-0.6-0.5-0.8l0,0
				c0.3-0.2,0.6-0.5,0.6-0.9c0-0.6-0.5-1-1-1l-1,0c-0.1,0-0.1,0.1-0.1,0.1l0,3.3c0,0.1,0.1,0.1,0.1,0.1c0.1,0,0.1-0.1,0.1-0.1l0-1.4
				l0.8,0c0,0,0,0,0.1,0c0.1,0,0.3,0.1,0.4,0.2c0.1,0.1,0.2,0.3,0.2,0.5c0,0.3,0,0.5,0.1,0.6c0.1,0.1,0.2,0.2,0.2,0.2
				c0,0,0.1,0,0.1,0c0,0,0,0,0.1-0.1c0,0,0-0.1,0-0.1C199.4,97.6,199.3,97.6,199.2,97.6z M197.4,94.7l0.9,0c0.4,0,0.7,0.3,0.7,0.7
				c0,0.4-0.3,0.7-0.7,0.7l-0.9,0L197.4,94.7z"/>
		</g>
	</g>
	<g opacity="0.7">
		<path fill="#5C6670" d="M2.6,126.5c0.1-0.2,0.4-0.2,0.5,0c0.9,0.7,2.3,1.5,3.8,1.5c1,0,1.9-0.3,2.5-0.8c0.6-0.5,1-1.1,1-1.7
			c0-0.7-0.3-1.2-0.9-1.6c-0.6-0.4-1.5-0.7-2.7-0.9h0c-1.1-0.2-2-0.5-2.7-1c-0.7-0.5-1.2-1.2-1.2-2c0-0.9,0.5-1.6,1.2-2.2
			c0.7-0.5,1.7-0.8,2.8-0.8c1.5,0,2.7,0.7,3.6,1.3c0.2,0.1,0.2,0.3,0.1,0.5c-0.1,0.2-0.3,0.2-0.5,0.1c-0.9-0.6-1.9-1.2-3.2-1.2
			c-0.9,0-1.8,0.3-2.4,0.7c-0.6,0.4-0.9,1-0.9,1.6c0,0.6,0.3,1,0.9,1.4c0.6,0.4,1.4,0.7,2.5,0.9h0c1.2,0.2,2.2,0.5,2.9,1.1
			c0.8,0.5,1.3,1.3,1.3,2.2s-0.5,1.7-1.3,2.3c-0.8,0.6-1.8,0.9-3,0.9c-1.8,0-3.3-0.9-4.3-1.7C2.5,126.9,2.5,126.7,2.6,126.5z"/>
		<path fill="#5C6670" d="M16.4,120.6c2.1,0,3.8,1.8,3.8,4c0,2.2-1.7,4-3.8,4c-2.1,0-3.8-1.8-3.8-4
			C12.6,122.5,14.3,120.6,16.4,120.6z M16.4,127.9c1.6,0,3-1.5,3-3.2s-1.4-3.3-3-3.3s-3,1.5-3,3.3S14.8,127.9,16.4,127.9z"/>
		<path fill="#5C6670" d="M28.1,128.3v-4.4c0-1.4-1.1-2.5-2.5-2.5c-1.4,0-2.5,1.1-2.5,2.5v4.4v0.1c0,0.1,0,0.1-0.1,0.2
			c-0.1,0.1-0.2,0.1-0.3,0.1h-0.1c-0.1,0-0.2-0.1-0.3-0.2c0,0,0,0,0,0s0,0,0,0v-0.1v-4.4v-0.1V121c0-0.2,0.2-0.4,0.4-0.4
			c0.2,0,0.4,0.2,0.4,0.4v0.8c0.6-0.7,1.5-1.2,2.5-1.2c1.8,0,3.3,1.5,3.3,3.3v4.4c0,0.2-0.2,0.4-0.4,0.4
			C28.3,128.7,28.1,128.5,28.1,128.3z M23.9,119.2c0.2-0.4,0.4-0.6,0.7-0.6c0.6,0,1.5,0.7,2.1,0.7c0.6,0,1-0.3,1.3-1.2
			c0,0,0-0.1,0-0.2c0-0.2-0.1-0.3-0.3-0.3c-0.1,0-0.2,0.1-0.3,0.2c-0.2,0.4-0.4,0.6-0.7,0.6c-0.6,0-1.5-0.7-2.1-0.7
			c-0.6,0-1,0.3-1.3,1.2c0,0,0,0.1,0,0.2c0,0.2,0.1,0.3,0.3,0.3S23.8,119.3,23.9,119.2z"/>
		<path fill="#5C6670" d="M38.3,121v7.3c0,0.2-0.2,0.4-0.4,0.4c-0.2,0-0.4-0.2-0.4-0.4v-1.2c-0.7,1-1.8,1.6-3,1.6
			c-2.1,0-3.8-1.8-3.8-4c0-2.2,1.7-4,3.8-4c1.2,0,2.3,0.6,3,1.6V121c0-0.2,0.2-0.4,0.4-0.4C38.1,120.6,38.3,120.8,38.3,121z
			 M37.5,124.7c0-1.8-1.4-3.3-3-3.3c-1.6,0-3,1.5-3,3.3s1.4,3.2,3,3.2C36.1,127.9,37.5,126.5,37.5,124.7z"/>
		<path fill="#5C6670" d="M52.3,123.9c0-1.4-1.1-2.5-2.5-2.5c-1.4,0-2.5,1.1-2.5,2.5v4.4v0c0,0,0,0,0,0v0c0,0.1-0.1,0.2-0.2,0.2
			c-0.1,0-0.1,0-0.2,0h0h0c0,0,0,0,0,0c0,0-0.1,0-0.1,0c0,0,0,0,0,0l0,0c0,0,0,0,0,0c0,0,0,0,0,0c0,0,0,0,0,0c0,0,0,0,0,0v0v0v-4.4
			c0-1.4-1.1-2.5-2.5-2.5s-2.5,1.1-2.5,2.5v4.4c0,0.1-0.1,0.2-0.2,0.3c0,0-0.1,0-0.1,0c0,0,0,0-0.1,0h0h0c-0.1,0-0.3-0.1-0.3-0.3
			v-0.1v-4.4v-0.1V121c0-0.2,0.2-0.4,0.4-0.4c0.2,0,0.4,0.2,0.4,0.4v0.8c0.6-0.7,1.5-1.2,2.5-1.2c1.3,0,2.3,0.7,2.9,1.7
			c0.6-1,1.7-1.7,2.9-1.7c1.8,0,3.3,1.5,3.3,3.3v4.4c0,0.2-0.2,0.4-0.4,0.4c-0.2,0-0.4-0.2-0.4-0.4V123.9z"/>
		<path fill="#5C6670" d="M58.9,120.6c2.1,0,3.8,1.8,3.8,4c0,2.2-1.7,4-3.8,4c-2.1,0-3.8-1.8-3.8-4
			C55.1,122.5,56.8,120.6,58.9,120.6z M58.9,127.9c1.6,0,3-1.5,3-3.2s-1.4-3.3-3-3.3s-3,1.5-3,3.3S57.2,127.9,58.9,127.9z"/>
		<path fill="#5C6670" d="M64.2,127c0.1-0.2,0.4-0.2,0.6,0c0.6,0.4,1.5,0.9,2.5,0.9c0.6,0,1.2-0.2,1.5-0.5c0.4-0.3,0.6-0.6,0.6-1
			c0-0.4-0.2-0.6-0.6-1c-0.3-0.3-0.9-0.5-1.7-0.6l0,0c-0.7-0.1-1.4-0.3-1.8-0.6c-0.5-0.3-0.9-0.8-0.9-1.5c0-0.6,0.4-1.2,0.9-1.6
			c0.5-0.3,1.2-0.5,2-0.5c1,0,1.8,0.5,2.4,0.9c0.2,0.1,0.2,0.4,0.1,0.6s-0.4,0.2-0.5,0.1c-0.6-0.4-1.2-0.8-2-0.8
			c-0.7,0-1.2,0.2-1.5,0.5c-0.3,0.3-0.5,0.6-0.5,0.9c0,0.3,0.1,0.6,0.5,0.8c0.4,0.2,0.9,0.4,1.6,0.6h0c0.8,0.1,1.4,0.3,2,0.7
			c0.5,0.3,0.9,1,0.9,1.6c0,0.7-0.4,1.2-0.9,1.6c-0.6,0.4-1.2,0.6-2,0.6c-1.3,0-2.3-0.6-3-1.2C64.1,127.4,64.1,127.2,64.2,127z"/>
		<path fill="#5C6670" d="M76,117.6c0-0.2,0.2-0.4,0.4-0.4c0.2,0,0.4,0.2,0.4,0.4v10.8c0,0.2-0.2,0.4-0.4,0.4
			c-0.2,0-0.4-0.2-0.4-0.4V117.6z"/>
		<path fill="#5C6670" d="M82.5,120.6c2.1,0,3.8,1.8,3.8,4c0,2.2-1.7,4-3.8,4c-2.1,0-3.8-1.8-3.8-4
			C78.6,122.5,80.3,120.6,82.5,120.6z M82.5,127.9c1.6,0,3-1.5,3-3.2s-1.4-3.3-3-3.3s-3,1.5-3,3.3S80.8,127.9,82.5,127.9z"/>
		<path fill="#5C6670" d="M103.9,123.9c0-1.4-1.1-2.5-2.5-2.5c-1.4,0-2.5,1.1-2.5,2.5v4.4v0c0,0,0,0,0,0v0c0,0.1-0.1,0.2-0.2,0.2
			c-0.1,0-0.1,0-0.2,0h0h0c0,0,0,0,0,0c0,0-0.1,0-0.1,0c0,0,0,0,0,0l0,0c0,0,0,0,0,0c0,0,0,0,0,0c0,0,0,0,0,0c0,0,0,0,0,0v0v0v-4.4
			c0-1.4-1.1-2.5-2.5-2.5s-2.5,1.1-2.5,2.5v4.4c0,0.1-0.1,0.2-0.2,0.3c0,0-0.1,0-0.1,0c0,0,0,0-0.1,0h0h0c-0.1,0-0.3-0.1-0.3-0.3
			v-0.1v-4.4v-0.1V121c0-0.2,0.2-0.4,0.4-0.4c0.2,0,0.4,0.2,0.4,0.4v0.8c0.6-0.7,1.5-1.2,2.5-1.2c1.3,0,2.3,0.7,2.9,1.7
			c0.6-1,1.7-1.7,2.9-1.7c1.8,0,3.3,1.5,3.3,3.3v4.4c0,0.2-0.2,0.4-0.4,0.4c-0.2,0-0.4-0.2-0.4-0.4V123.9z"/>
		<path fill="#5C6670" d="M107.1,118.4c0-0.2,0.2-0.4,0.4-0.4c0.2,0,0.4,0.2,0.4,0.4v0.4c0,0.2-0.2,0.4-0.4,0.4
			c-0.2,0-0.4-0.2-0.4-0.4V118.4z M107.1,121c0-0.2,0.2-0.4,0.4-0.4c0.2,0,0.4,0.2,0.4,0.4v7.3c0,0.2-0.2,0.4-0.4,0.4
			c-0.2,0-0.4-0.2-0.4-0.4V121z"/>
		<path fill="#5C6670" d="M110.1,127c0.1-0.2,0.4-0.2,0.6,0c0.6,0.4,1.5,0.9,2.5,0.9c0.6,0,1.2-0.2,1.5-0.5c0.4-0.3,0.6-0.6,0.6-1
			c0-0.4-0.2-0.6-0.6-1c-0.3-0.3-0.9-0.5-1.7-0.6l0,0c-0.7-0.1-1.4-0.3-1.8-0.6c-0.5-0.3-0.9-0.8-0.9-1.5c0-0.6,0.4-1.2,0.9-1.6
			c0.5-0.3,1.2-0.5,2-0.5c1,0,1.8,0.5,2.4,0.9c0.2,0.1,0.2,0.4,0.1,0.6s-0.4,0.2-0.5,0.1c-0.6-0.4-1.2-0.8-2-0.8
			c-0.7,0-1.2,0.2-1.5,0.5c-0.3,0.3-0.5,0.6-0.5,0.9c0,0.3,0.1,0.6,0.5,0.8c0.4,0.2,0.9,0.4,1.6,0.6h0c0.8,0.1,1.4,0.3,2,0.7
			c0.5,0.3,0.9,1,0.9,1.6c0,0.7-0.4,1.2-0.9,1.6c-0.6,0.4-1.2,0.6-2,0.6c-1.3,0-2.3-0.6-3-1.2C110,127.4,110,127.2,110.1,127z"/>
		<path fill="#5C6670" d="M129.4,123.9c0-1.4-1.1-2.5-2.5-2.5c-1.4,0-2.5,1.1-2.5,2.5v4.4v0c0,0,0,0,0,0v0c0,0.1-0.1,0.2-0.2,0.2
			c-0.1,0-0.1,0-0.2,0h0h0c0,0,0,0,0,0c0,0-0.1,0-0.1,0c0,0,0,0,0,0l0,0c0,0,0,0,0,0c0,0,0,0,0,0c0,0,0,0,0,0c0,0,0,0,0,0v0v0v-4.4
			c0-1.4-1.1-2.5-2.5-2.5s-2.5,1.1-2.5,2.5v4.4c0,0.1-0.1,0.2-0.2,0.3c0,0-0.1,0-0.1,0c0,0,0,0-0.1,0h0h0c-0.1,0-0.3-0.1-0.3-0.3
			v-0.1v-4.4v-0.1V121c0-0.2,0.2-0.4,0.4-0.4c0.2,0,0.4,0.2,0.4,0.4v0.8c0.6-0.7,1.5-1.2,2.5-1.2c1.3,0,2.3,0.7,2.9,1.7
			c0.6-1,1.7-1.7,2.9-1.7c1.8,0,3.3,1.5,3.3,3.3v4.4c0,0.2-0.2,0.4-0.4,0.4c-0.2,0-0.4-0.2-0.4-0.4V123.9z"/>
		<path fill="#5C6670" d="M136,120.6c2.1,0,3.8,1.8,3.8,4c0,2.2-1.7,4-3.8,4c-2.1,0-3.8-1.8-3.8-4
			C132.2,122.5,133.9,120.6,136,120.6z M136,127.9c1.6,0,3-1.5,3-3.2s-1.4-3.3-3-3.3s-3,1.5-3,3.3S134.4,127.9,136,127.9z"/>
		<path fill="#5C6670" d="M152.3,127.1c-0.7,1-1.8,1.6-3.1,1.6c-2.1,0-3.9-1.8-3.9-4c0-2.2,1.7-4,3.9-4c1.3,0,2.4,0.6,3.1,1.6V121
			c0-0.2,0.2-0.4,0.4-0.4c0.2,0,0.4,0.2,0.4,0.4v3.4v0.2v0.2v6.9c0,0.2-0.2,0.4-0.4,0.4c-0.2,0-0.4-0.2-0.4-0.4V127.1z M149.2,127.9
			c1.7,0,3.1-1.5,3.1-3.2c0-1.8-1.4-3.2-3.1-3.2c-1.7,0-3.1,1.4-3.1,3.2C146.1,126.4,147.5,127.8,149.2,127.9z"/>
		<path fill="#5C6670" d="M155.6,121c0-0.2,0.2-0.4,0.4-0.4c0.2,0,0.4,0.2,0.4,0.4v4.4c0,1.4,1.1,2.5,2.5,2.5c1.4,0,2.5-1.1,2.5-2.5
			V121c0-0.2,0.2-0.4,0.4-0.4c0.2,0,0.4,0.2,0.4,0.4v4.4c0,1.8-1.5,3.3-3.3,3.3c-1.8,0-3.3-1.5-3.3-3.3V121z"/>
		<path fill="#5C6670" d="M164.4,124.7c0-2.2,1.7-4.1,3.9-4.1c2.1,0,3.7,1.6,3.9,3.8v0v0c0,0.2-0.2,0.4-0.4,0.4h-6.6
			c0.1,1.8,1.5,3.1,3.1,3.1c1.1,0,2.1-0.6,2.6-1.5c0.1-0.2,0.4-0.2,0.5-0.1c0.2,0.1,0.2,0.4,0.1,0.6c-0.7,1.1-1.9,1.8-3.3,1.8
			C166.1,128.7,164.4,126.9,164.4,124.7z M165.2,124h6.1c-0.3-1.5-1.6-2.6-3-2.6C166.8,121.4,165.5,122.5,165.2,124z"/>
		<path fill="#5C6670" d="M180.8,121c0,0.2-0.2,0.4-0.4,0.4h-1v5.9c0,0.4,0.4,0.6,0.6,0.6c0.2,0,0.4,0.2,0.4,0.4
			c0,0.2-0.2,0.4-0.4,0.4c-0.8,0-1.4-0.6-1.4-1.4v-5.9h-1c-0.4,0-0.4-0.2-0.4-0.4s0-0.4,0.4-0.4h1v-3c0-0.2,0.2-0.4,0.4-0.4
			c0.2,0,0.4,0.2,0.4,0.4v3h1C180.6,120.6,180.8,120.8,180.8,121z"/>
		<path fill="#5C6670" d="M183.4,121c0-0.2,0.2-0.4,0.4-0.4c0.2,0,0.4,0.2,0.4,0.4v4.4c0,1.4,1.1,2.5,2.5,2.5c1.4,0,2.5-1.1,2.5-2.5
			V121c0-0.2,0.2-0.4,0.4-0.4c0.2,0,0.4,0.2,0.4,0.4v4.4c0,1.8-1.5,3.3-3.3,3.3c-1.8,0-3.3-1.5-3.3-3.3V121z M185.6,119.2
			c0-0.1,0-0.1,0.1-0.2l1-1.5c0.1-0.2,0.3-0.3,0.5-0.3c0.3,0,0.7,0.2,0.7,0.4c0,0.1-0.1,0.2-0.2,0.3l-1.3,1.3
			c-0.2,0.2-0.3,0.2-0.5,0.2C185.7,119.3,185.6,119.2,185.6,119.2z"/>
	</g>
</g>
</svg>
