<?xml version="1.0" encoding="utf-8"?>
<!-- Generator: Adobe Illustrator 18.1.1, SVG Export Plug-In . SVG Version: 6.00 Build 0)  -->
<!DOCTYPE svg PUBLIC "-//W3C//DTD SVG 1.1//EN" "http://www.w3.org/Graphics/SVG/1.1/DTD/svg11.dtd">
<svg version="1.1" id="Capa_1" xmlns="http://www.w3.org/2000/svg" xmlns:xlink="http://www.w3.org/1999/xlink" x="0px" y="0px"
	 viewBox="0 0 104.8 47.4" enable-background="new 0 0 104.8 47.4" xml:space="preserve">
<g>
	<g>
		<g>
			<g>
				<g>
					<path fill="#FFB819" d="M92.5,5.3c-3.5,0-6.7,1.5-9,3.9l7.7,20.4c0.4,0,0.8,0.1,1.3,0.1c6.8,0,12.2-5.5,12.2-12.2
						C104.7,10.8,99.3,5.3,92.5,5.3z"/>
					<g>
						<path fill="#5C6670" d="M96.2,42.7L81.1,2.9C80.6,1.5,79.2,0,77,0l0,0c-2.1,0-3.5,1.3-4.1,2.5l-13,32L48,2.9
							C47.5,1.5,46,0,43.9,0l0,0c-2.1,0-3.5,1.3-4.1,2.5L23.5,42.6c-0.7,1.8,0.1,3.8,1.9,4.5c1.8,0.7,3.8-0.1,4.5-1.9l13.8-34.2
							l12.9,34.1c0,0,0,0,0,0.1c0.1,0.1,0.1,0.3,0.2,0.4c0,0,0.1,0.1,0.1,0.1c0.1,0.1,0.1,0.2,0.2,0.3c0,0,0.1,0.1,0.1,0.1
							c0.1,0.1,0.2,0.2,0.3,0.3c0,0,0.1,0.1,0.1,0.1c0.1,0.1,0.2,0.2,0.3,0.2c0,0,0,0,0.1,0.1c0.1,0.1,0.2,0.2,0.4,0.2
							c0,0,0.1,0,0.1,0.1c0,0,0.1,0,0.1,0.1c0.1,0,0.1,0.1,0.2,0.1c0,0,0.1,0,0.1,0c0.1,0,0.3,0.1,0.4,0.1c0,0,0.1,0,0.1,0
							c0.2,0,0.3,0,0.4,0l0,0h0c0.2,0,0.4,0,0.5,0c0,0,0.1,0,0.1,0c0.1,0,0.3-0.1,0.4-0.1c0,0,0.1,0,0.1,0c1-0.4,1.7-1.1,2-2
							l13.8-34.1l12.9,34.1c0.5,1.4,1.8,2.2,3.2,2.2c0.4,0,0.8-0.1,1.2-0.2C95.9,46.5,96.8,44.5,96.2,42.7z"/>
						<path fill="#5C6670" d="M3.7,47.4c-0.4,0-0.9-0.1-1.3-0.3c-1.8-0.7-2.6-2.7-1.9-4.5L16.9,2.2c0.7-1.8,2.7-2.6,4.5-1.9
							C23.1,1,24,3,23.3,4.7L6.9,45.2C6.3,46.6,5,47.4,3.7,47.4"/>
					</g>
				</g>
				<g>
					<path fill="#5C6670" d="M-87.5,57.8c-0.3,0-0.5,0.2-0.5,0.5l0,11.3c0,0.3,0.2,0.5,0.5,0.5c0.3,0,0.5-0.2,0.5-0.5l0-11.3
						C-87,58.1-87.2,57.8-87.5,57.8z"/>
					<path fill="#5C6670" d="M-65.8,57.9c-0.3,0-0.5,0.2-0.5,0.5l0,9.7l-7.2-10c-0.2-0.2-0.4-0.2-0.7-0.1l-0.1,0
						c-0.1,0.1-0.2,0.2-0.2,0.4l0,11.2c0,0.3,0.2,0.5,0.5,0.5c0.3,0,0.5-0.2,0.5-0.5l0-9.8l7.1,9.9l0.2,0.2c0.1,0.1,0.2,0.1,0.3,0.1
						c0.3,0,0.5-0.2,0.5-0.5l0-11.2C-65.3,58.2-65.5,57.9-65.8,57.9z"/>
					<path fill="#5C6670" d="M-44,57.9l-0.1,0l0,0c-0.1,0-0.2,0.1-0.2,0.2l-4.3,5.9l-4.3-5.9L-53,58c0,0-0.1-0.1-0.2-0.1l0,0h-0.1
						c-0.3,0-0.5,0.2-0.5,0.5l0,11.3c0,0.3,0.2,0.5,0.5,0.5c0.3,0,0.5-0.2,0.5-0.5l0-9.8l3.8,5.2c0.1,0.1,0.2,0.2,0.4,0.2
						c0.1,0,0.3-0.1,0.4-0.2l3.8-5.2l0,9.8c0,0.3,0.2,0.5,0.5,0.5c0.3,0,0.5-0.2,0.5-0.5l0-11.3C-43.5,58.1-43.7,57.9-44,57.9z"/>
					<path fill="#5C6670" d="M-28,57.7c-3.3,0-6,2.8-6,6.3c0,3.5,2.7,6.3,6,6.3c3.3,0,6-2.8,6-6.3C-22.1,60.5-24.7,57.7-28,57.7z
						 M-28,69.3c-2.7,0-5-2.4-5-5.3c0-2.9,2.2-5.3,5-5.3c2.7,0,5,2.4,5,5.3C-23.1,66.9-25.3,69.3-28,69.3z"/>
					<path fill="#5C6670" d="M-6.6,63.3c0.7-0.6,1.1-1.4,1.1-2.4c0-1.7-1.4-3.1-3.1-3.1h-2.7c-0.3,0-0.5,0.2-0.5,0.5l0,11.3
						c0,0.3,0.2,0.5,0.5,0.5h3.4c1.9,0,3.5-1.6,3.5-3.5C-4.4,65.1-5.3,63.8-6.6,63.3z M-7.9,69.1h-3l0-5.1h3c1.4,0,2.5,1.1,2.5,2.5
						C-5.4,68-6.5,69.1-7.9,69.1z M-8.7,63h-2.2l0-4.2h2.2c1.2,0,2.1,1,2.1,2.1C-6.6,62.1-7.5,63-8.7,63z"/>
					<path fill="#5C6670" d="M5.7,57.8c-0.3,0-0.5,0.2-0.5,0.5l0,11.3c0,0.3,0.2,0.5,0.5,0.5c0.3,0,0.5-0.2,0.5-0.5l0-11.3
						C6.1,58.1,5.9,57.8,5.7,57.8z"/>
					<path fill="#5C6670" d="M25.5,69.1l-5.8,0l0-10.8c0-0.3-0.2-0.5-0.5-0.5c-0.3,0-0.5,0.2-0.5,0.5l0,11.3c0,0.3,0.2,0.5,0.5,0.5
						h6.2c0.3,0,0.5-0.2,0.5-0.5C26,69.4,25.8,69.1,25.5,69.1z"/>
					<path fill="#5C6670" d="M36.2,57.8c-0.3,0-0.5,0.2-0.5,0.5l0,11.3c0,0.3,0.2,0.5,0.5,0.5c0.3,0,0.5-0.2,0.5-0.5l0-11.3
						C36.7,58.1,36.5,57.8,36.2,57.8z"/>
					<path fill="#5C6670" d="M51.9,58.1c-0.1-0.2-0.3-0.3-0.4-0.3l-0.1,0c-0.2,0-0.4,0.1-0.4,0.3l-4.2,11.2c-0.1,0.3,0,0.5,0.2,0.6
						l0,0l0.2,0c0.2,0,0.4-0.2,0.4-0.3l1.1-2.8l5.5,0l1.1,2.9c0.1,0.2,0.3,0.3,0.5,0.3c0.1,0,0.1,0,0.1,0h0.1l0.1,0
						c0.2-0.1,0.3-0.4,0.3-0.6L51.9,58.1z M49,66l2.4-6.3l2.4,6.3H49z"/>
					<path fill="#5C6670" d="M73.7,68.9C73.7,68.9,73.7,68.9,73.7,68.9c-0.1-0.1-0.3-0.6-0.3-1.6c0-1.1-0.6-2.1-1.7-2.8
						c0,0,0,0-0.1,0c1.2-0.6,1.9-1.8,1.9-3.1c0-2-1.6-3.5-3.5-3.5l-3.4,0c-0.3,0-0.5,0.2-0.5,0.5l0,11.3c0,0.3,0.2,0.5,0.5,0.5
						c0.3,0,0.5-0.2,0.5-0.5l0-4.7l2.9,0c0,0,0.1,0,0.4,0.1c0.3,0.1,0.9,0.3,1.3,0.7c0.5,0.5,0.7,1,0.7,1.6c0,1,0.1,1.6,0.3,2
						c0.2,0.4,0.6,0.6,0.9,0.6c0.1,0,0.2,0,0.3-0.1c0.1,0,0.2-0.1,0.2-0.2c0.1-0.1,0.1-0.3,0.1-0.4C74.2,69.1,73.9,68.9,73.7,68.9z
						 M67.2,58.8h2.9c1.4,0,2.5,1.1,2.5,2.6c0,1.4-1.1,2.5-2.5,2.5h-2.9L67.2,58.8z"/>
					<path fill="#5C6670" d="M85.4,57.8c-0.3,0-0.5,0.2-0.5,0.5l0,11.3c0,0.3,0.2,0.5,0.5,0.5c0.3,0,0.5-0.2,0.5-0.5l0-11.3
						C85.9,58.1,85.7,57.8,85.4,57.8z"/>
					<path fill="#5C6670" d="M104.4,69.4l-4.2-11.3c-0.1-0.2-0.3-0.3-0.4-0.3l-0.1,0c-0.2,0-0.4,0.1-0.4,0.3L95,69.4
						c-0.1,0.3,0,0.5,0.2,0.6l0,0l0.2,0c0.2,0,0.4-0.2,0.4-0.3l1.1-2.8h5.5l1.1,2.9c0.1,0.2,0.3,0.3,0.5,0.3c0,0,0.1,0,0.1,0l0.1,0
						C104.4,69.9,104.5,69.6,104.4,69.4z M97.3,66l2.4-6.3l2.4,6.3H97.3z"/>
				</g>
				<path fill="#5C6670" d="M-69,78.8l0,18.6c0,0.9-0.8,1.7-1.8,1.7c-1,0-1.7-0.8-1.7-1.7l0-13.3l-4.5,6.3c-0.3,0.5-0.9,0.7-1.4,0.7
					h0h0c-0.6,0-1.1-0.2-1.5-0.7l-4.5-6.3l0,13.3c0,0.9-0.8,1.7-1.8,1.7c-0.9,0-1.7-0.8-1.7-1.7l0-18.6c0-0.9,0.8-1.7,1.7-1.7h0.1
					c0.5,0,1.1,0.3,1.4,0.7l6.3,8.7l6.3-8.7c0.3-0.5,0.9-0.7,1.4-0.7h0C-69.8,77.1-69,77.9-69,78.8"/>
				<path fill="#5C6670" d="M-52.3,93.9H-60l-1.5,4.1c-0.3,0.7-0.9,1.1-1.6,1.1c-0.2,0-0.4,0-0.6-0.1c-0.9-0.3-1.4-1.4-1-2.3l7-18.6
					c0.3-0.7,1-1.1,1.7-1.1c0.7,0,1.4,0.4,1.7,1.1l7,18.6c0.3,0.9-0.1,1.9-1,2.3c-0.2,0.1-0.4,0.1-0.6,0.1c-0.7,0-1.4-0.4-1.6-1.1
					L-52.3,93.9z M-53.6,90.5l-2.6-6.8l-2.6,6.8L-53.6,90.5z"/>
				<path fill="#5C6670" d="M-39.9,97.4c0,0.9-0.8,1.7-1.7,1.7c-1,0-1.7-0.8-1.7-1.7l0-18.3v0c0-0.5,0.2-1.1,0.7-1.4
					c0.8-0.5,1.9-0.4,2.4,0.4l10.2,14.1l0-13c0-0.9,0.8-1.7,1.7-1.7c0.9,0,1.7,0.8,1.7,1.7l0,18.3c0,0.9-0.8,1.7-1.7,1.7
					c-0.5,0-1-0.3-1.3-0.6c-0.1-0.1-0.1-0.1-0.2-0.2l-10.1-14L-39.9,97.4z"/>
				<path fill="#5C6670" d="M-3.4,79.8c1.9,2.1,3.2,4.9,3.2,8c0,3.1-1.2,5.9-3.2,8c-1.9,2.1-4.6,3.4-7.5,3.4c-3,0-5.8-1.3-7.7-3.4
					c-2-2-3.1-4.9-3.1-8c0-3.1,1.2-5.9,3.1-8c1.9-2.1,4.7-3.4,7.7-3.4C-8,76.4-5.2,77.7-3.4,79.8 M-3.8,87.8c0-2.1-0.9-4.1-2.1-5.5
					c-1.3-1.4-3.1-2.2-5-2.2c-2,0-3.8,0.8-5.1,2.2c-1.3,1.4-2.1,3.4-2.1,5.5c0,2.1,0.8,4.1,2.1,5.5c1.3,1.4,3.1,2.3,5.1,2.3
					c1.9,0,3.7-0.8,5-2.3C-4.6,91.9-3.8,89.9-3.8,87.8"/>
				<path fill="#5C6670" d="M13.5,99.1c-5.1,0-9.1-4.1-9.1-9.1l0-11.2c0-1,0.8-1.7,1.7-1.7c0.9,0,1.8,0.8,1.8,1.7l0,11.2
					c0,3.1,2.5,5.6,5.6,5.6c3.1,0,5.6-2.5,5.6-5.6l0-11.2c0-1,0.8-1.7,1.8-1.7c1,0,1.7,0.8,1.7,1.7l0,11.2
					C22.7,95,18.6,99.1,13.5,99.1"/>
				<path fill="#5C6670" d="M28.3,97.4l0-18.6c0-1,0.8-1.7,1.7-1.7h0h0.1h10.2c0.9,0,1.7,0.8,1.7,1.7c0,1-0.8,1.8-1.7,1.8l-8.5,0
					l0,5.8l7.3,0c0.9,0,1.7,0.8,1.7,1.7c0,1-0.8,1.8-1.7,1.8l-7.3,0l0,5.8h8.5c0.9,0,1.7,0.8,1.7,1.8c0,0.9-0.8,1.7-1.7,1.7l-10.2,0
					c-0.1,0-0.1,0-0.1,0l0,0C29.1,99.1,28.3,98.4,28.3,97.4"/>
				<path fill="#5C6670" d="M47.3,97.4l0-18.6c0-1,0.8-1.7,1.7-1.7c1,0,1.8,0.8,1.8,1.7l0,7.6l8.2,0l0-7.6c0-1,0.8-1.7,1.7-1.7
					c1,0,1.8,0.8,1.8,1.7l0,18.6c0,1-0.8,1.7-1.8,1.7c-1,0-1.7-0.8-1.7-1.7l0-7.6h-8.2l0,7.6c0,1-0.8,1.7-1.8,1.7
					C48,99.1,47.3,98.4,47.3,97.4"/>
				<path fill="#5C6670" d="M76.6,99.1c-5.1,0-9.1-4.1-9.1-9.1l0-11.2c0-1,0.8-1.7,1.7-1.7c0.9,0,1.8,0.8,1.8,1.7L71,90
					c0,3.1,2.5,5.6,5.6,5.6c3.1,0,5.6-2.5,5.6-5.6l0-11.2c0-1,0.8-1.7,1.8-1.7c1,0,1.7,0.8,1.7,1.7l0,11.2
					C85.7,95,81.7,99.1,76.6,99.1"/>
				<path fill="#5C6670" d="M90.9,97.4l0-18.6c0-1,0.8-1.7,1.7-1.7h0h0.1h10.2c0.9,0,1.7,0.8,1.7,1.7c0,1-0.8,1.8-1.7,1.8l-8.5,0
					l0,5.8l7.4,0c0.9,0,1.7,0.8,1.7,1.7c0,1-0.8,1.8-1.7,1.8l-7.4,0l0,5.8h8.5c0.9,0,1.7,0.8,1.7,1.8c0,0.9-0.8,1.7-1.7,1.7H92.7
					c-0.1,0-0.1,0-0.1,0l0,0C91.6,99.1,90.9,98.4,90.9,97.4"/>
				<path fill="#5C6670" d="M-16.3,105.1c-1,0-1.7-0.8-1.7-1.7c0-0.9,0.8-1.8,1.7-1.8l10.7,0c1,0,1.7,0.8,1.7,1.8
					c0,1-0.8,1.7-1.7,1.7L-16.3,105.1z"/>
			</g>
		</g>
		<g>
			<path fill-rule="evenodd" clip-rule="evenodd" fill="#5C6670" d="M108.3,94.2c-0.5,0.5-0.8,1.2-0.8,1.9c0,0.7,0.3,1.4,0.8,1.9
				c0.5,0.5,1.2,0.8,1.9,0.8c0.8,0,1.4-0.3,1.9-0.8c0.5-0.5,0.8-1.2,0.8-1.9c0-0.7-0.3-1.4-0.8-1.9c-0.5-0.5-1.2-0.8-1.9-0.8
				C109.4,93.5,108.8,93.7,108.3,94.2z M112.3,98.3c-0.6,0.6-1.3,0.9-2.1,0.9c-0.8,0-1.5-0.3-2.1-0.9c-0.6-0.6-0.9-1.3-0.9-2.1
				c0-0.8,0.3-1.5,0.9-2.1c0.6-0.6,1.3-0.9,2.1-0.9c0.8,0,1.5,0.3,2.1,0.9c0.6,0.6,0.9,1.3,0.9,2.1C113.1,97,112.9,97.7,112.3,98.3z
				"/>
			<path fill="#5C6670" d="M111.2,97.6C111.2,97.6,111.2,97.6,111.2,97.6c0,0-0.1-0.2-0.1-0.5c0-0.3-0.2-0.6-0.5-0.8l0,0
				c0.3-0.2,0.6-0.5,0.6-0.9c0-0.6-0.5-1-1-1l-1,0c-0.1,0-0.1,0.1-0.1,0.1l0,3.3c0,0.1,0.1,0.1,0.1,0.1c0.1,0,0.1-0.1,0.1-0.1l0-1.4
				l0.8,0c0,0,0,0,0.1,0c0.1,0,0.3,0.1,0.4,0.2c0.1,0.1,0.2,0.3,0.2,0.5c0,0.3,0,0.5,0.1,0.6c0.1,0.1,0.2,0.2,0.2,0.2
				c0,0,0.1,0,0.1,0c0,0,0,0,0.1-0.1c0,0,0-0.1,0-0.1C111.4,97.6,111.3,97.6,111.2,97.6z M109.4,94.7l0.9,0c0.4,0,0.7,0.3,0.7,0.7
				c0,0.4-0.3,0.7-0.7,0.7l-0.9,0L109.4,94.7z"/>
		</g>
	</g>
	<g opacity="0.7">
		<path fill="#5C6670" d="M-85.4,126.5c0.1-0.2,0.4-0.2,0.5,0c0.9,0.7,2.3,1.5,3.8,1.5c1,0,1.9-0.3,2.5-0.8c0.6-0.5,1-1.1,1-1.7
			c0-0.7-0.3-1.2-0.9-1.6c-0.6-0.4-1.5-0.7-2.7-0.9h0c-1.1-0.2-2-0.5-2.7-1c-0.7-0.5-1.2-1.2-1.2-2c0-0.9,0.5-1.6,1.2-2.2
			c0.7-0.5,1.7-0.8,2.8-0.8c1.5,0,2.7,0.7,3.6,1.3c0.2,0.1,0.2,0.3,0.1,0.5c-0.1,0.2-0.3,0.2-0.5,0.1c-0.9-0.6-1.9-1.2-3.2-1.2
			c-0.9,0-1.8,0.3-2.4,0.7c-0.6,0.4-0.9,1-0.9,1.6c0,0.6,0.3,1,0.9,1.4c0.6,0.4,1.4,0.7,2.5,0.9h0c1.2,0.2,2.2,0.5,2.9,1.1
			c0.8,0.5,1.3,1.3,1.3,2.2s-0.5,1.7-1.3,2.3c-0.8,0.6-1.8,0.9-3,0.9c-1.8,0-3.3-0.9-4.3-1.7C-85.5,126.9-85.5,126.7-85.4,126.5z"/>
		<path fill="#5C6670" d="M-71.6,120.6c2.1,0,3.8,1.8,3.8,4c0,2.2-1.7,4-3.8,4c-2.1,0-3.8-1.8-3.8-4
			C-75.4,122.5-73.7,120.6-71.6,120.6z M-71.6,127.9c1.6,0,3-1.5,3-3.2s-1.4-3.3-3-3.3s-3,1.5-3,3.3S-73.2,127.9-71.6,127.9z"/>
		<path fill="#5C6670" d="M-59.9,128.3v-4.4c0-1.4-1.1-2.5-2.5-2.5c-1.4,0-2.5,1.1-2.5,2.5v4.4v0.1c0,0.1,0,0.1-0.1,0.2
			c-0.1,0.1-0.2,0.1-0.3,0.1h-0.1c-0.1,0-0.2-0.1-0.3-0.2c0,0,0,0,0,0s0,0,0,0v-0.1v-4.4v-0.1V121c0-0.2,0.2-0.4,0.4-0.4
			c0.2,0,0.4,0.2,0.4,0.4v0.8c0.6-0.7,1.5-1.2,2.5-1.2c1.8,0,3.3,1.5,3.3,3.3v4.4c0,0.2-0.2,0.4-0.4,0.4
			C-59.7,128.7-59.9,128.5-59.9,128.3z M-64.1,119.2c0.2-0.4,0.4-0.6,0.7-0.6c0.6,0,1.5,0.7,2.1,0.7c0.6,0,1-0.3,1.3-1.2
			c0,0,0-0.1,0-0.2c0-0.2-0.1-0.3-0.3-0.3c-0.1,0-0.2,0.1-0.3,0.2c-0.2,0.4-0.4,0.6-0.7,0.6c-0.6,0-1.5-0.7-2.1-0.7
			c-0.6,0-1,0.3-1.3,1.2c0,0,0,0.1,0,0.2c0,0.2,0.1,0.3,0.3,0.3S-64.2,119.3-64.1,119.2z"/>
		<path fill="#5C6670" d="M-49.7,121v7.3c0,0.2-0.2,0.4-0.4,0.4c-0.2,0-0.4-0.2-0.4-0.4v-1.2c-0.7,1-1.8,1.6-3,1.6
			c-2.1,0-3.8-1.8-3.8-4c0-2.2,1.7-4,3.8-4c1.2,0,2.3,0.6,3,1.6V121c0-0.2,0.2-0.4,0.4-0.4C-49.9,120.6-49.7,120.8-49.7,121z
			 M-50.5,124.7c0-1.8-1.4-3.3-3-3.3c-1.6,0-3,1.5-3,3.3s1.4,3.2,3,3.2C-51.9,127.9-50.5,126.5-50.5,124.7z"/>
		<path fill="#5C6670" d="M-35.7,123.9c0-1.4-1.1-2.5-2.5-2.5c-1.4,0-2.5,1.1-2.5,2.5v4.4v0c0,0,0,0,0,0v0c0,0.1-0.1,0.2-0.2,0.2
			c-0.1,0-0.1,0-0.2,0h0h0c0,0,0,0,0,0c0,0-0.1,0-0.1,0c0,0,0,0,0,0l0,0c0,0,0,0,0,0c0,0,0,0,0,0c0,0,0,0,0,0c0,0,0,0,0,0v0v0v-4.4
			c0-1.4-1.1-2.5-2.5-2.5s-2.5,1.1-2.5,2.5v4.4c0,0.1-0.1,0.2-0.2,0.3c0,0-0.1,0-0.1,0c0,0,0,0-0.1,0h0h0c-0.1,0-0.3-0.1-0.3-0.3
			v-0.1v-4.4v-0.1V121c0-0.2,0.2-0.4,0.4-0.4c0.2,0,0.4,0.2,0.4,0.4v0.8c0.6-0.7,1.5-1.2,2.5-1.2c1.3,0,2.3,0.7,2.9,1.7
			c0.6-1,1.7-1.7,2.9-1.7c1.8,0,3.3,1.5,3.3,3.3v4.4c0,0.2-0.2,0.4-0.4,0.4c-0.2,0-0.4-0.2-0.4-0.4V123.9z"/>
		<path fill="#5C6670" d="M-29.1,120.6c2.1,0,3.8,1.8,3.8,4c0,2.2-1.7,4-3.8,4c-2.1,0-3.8-1.8-3.8-4
			C-32.9,122.5-31.2,120.6-29.1,120.6z M-29.1,127.9c1.6,0,3-1.5,3-3.2s-1.4-3.3-3-3.3s-3,1.5-3,3.3S-30.8,127.9-29.1,127.9z"/>
		<path fill="#5C6670" d="M-23.8,127c0.1-0.2,0.4-0.2,0.6,0c0.6,0.4,1.5,0.9,2.5,0.9c0.6,0,1.2-0.2,1.5-0.5c0.4-0.3,0.6-0.6,0.6-1
			c0-0.4-0.2-0.6-0.6-1c-0.3-0.3-0.9-0.5-1.7-0.6l0,0c-0.7-0.1-1.4-0.3-1.8-0.6c-0.5-0.3-0.9-0.8-0.9-1.5c0-0.6,0.4-1.2,0.9-1.6
			c0.5-0.3,1.2-0.5,2-0.5c1,0,1.8,0.5,2.4,0.9c0.2,0.1,0.2,0.4,0.1,0.6s-0.4,0.2-0.5,0.1c-0.6-0.4-1.2-0.8-2-0.8
			c-0.7,0-1.2,0.2-1.5,0.5c-0.3,0.3-0.5,0.6-0.5,0.9c0,0.3,0.1,0.6,0.5,0.8c0.4,0.2,0.9,0.4,1.6,0.6h0c0.8,0.1,1.4,0.3,2,0.7
			c0.5,0.3,0.9,1,0.9,1.6c0,0.7-0.4,1.2-0.9,1.6c-0.6,0.4-1.2,0.6-2,0.6c-1.3,0-2.3-0.6-3-1.2C-23.9,127.4-23.9,127.2-23.8,127z"/>
		<path fill="#5C6670" d="M-12,117.6c0-0.2,0.2-0.4,0.4-0.4c0.2,0,0.4,0.2,0.4,0.4v10.8c0,0.2-0.2,0.4-0.4,0.4
			c-0.2,0-0.4-0.2-0.4-0.4V117.6z"/>
		<path fill="#5C6670" d="M-5.5,120.6c2.1,0,3.8,1.8,3.8,4c0,2.2-1.7,4-3.8,4c-2.1,0-3.8-1.8-3.8-4C-9.4,122.5-7.7,120.6-5.5,120.6z
			 M-5.5,127.9c1.6,0,3-1.5,3-3.2s-1.4-3.3-3-3.3s-3,1.5-3,3.3S-7.2,127.9-5.5,127.9z"/>
		<path fill="#5C6670" d="M15.9,123.9c0-1.4-1.1-2.5-2.5-2.5c-1.4,0-2.5,1.1-2.5,2.5v4.4v0c0,0,0,0,0,0v0c0,0.1-0.1,0.2-0.2,0.2
			c-0.1,0-0.1,0-0.2,0h0h0c0,0,0,0,0,0c0,0-0.1,0-0.1,0c0,0,0,0,0,0l0,0c0,0,0,0,0,0c0,0,0,0,0,0c0,0,0,0,0,0c0,0,0,0,0,0v0v0v-4.4
			c0-1.4-1.1-2.5-2.5-2.5s-2.5,1.1-2.5,2.5v4.4c0,0.1-0.1,0.2-0.2,0.3c0,0-0.1,0-0.1,0c0,0,0,0-0.1,0h0h0c-0.1,0-0.3-0.1-0.3-0.3
			v-0.1v-4.4v-0.1V121c0-0.2,0.2-0.4,0.4-0.4c0.2,0,0.4,0.2,0.4,0.4v0.8c0.6-0.7,1.5-1.2,2.5-1.2c1.3,0,2.3,0.7,2.9,1.7
			c0.6-1,1.7-1.7,2.9-1.7c1.8,0,3.3,1.5,3.3,3.3v4.4c0,0.2-0.2,0.4-0.4,0.4c-0.2,0-0.4-0.2-0.4-0.4V123.9z"/>
		<path fill="#5C6670" d="M19.1,118.4c0-0.2,0.2-0.4,0.4-0.4c0.2,0,0.4,0.2,0.4,0.4v0.4c0,0.2-0.2,0.4-0.4,0.4
			c-0.2,0-0.4-0.2-0.4-0.4V118.4z M19.1,121c0-0.2,0.2-0.4,0.4-0.4c0.2,0,0.4,0.2,0.4,0.4v7.3c0,0.2-0.2,0.4-0.4,0.4
			c-0.2,0-0.4-0.2-0.4-0.4V121z"/>
		<path fill="#5C6670" d="M22.1,127c0.1-0.2,0.4-0.2,0.6,0c0.6,0.4,1.5,0.9,2.5,0.9c0.6,0,1.2-0.2,1.5-0.5c0.4-0.3,0.6-0.6,0.6-1
			c0-0.4-0.2-0.6-0.6-1c-0.3-0.3-0.9-0.5-1.7-0.6l0,0c-0.7-0.1-1.4-0.3-1.8-0.6c-0.5-0.3-0.9-0.8-0.9-1.5c0-0.6,0.4-1.2,0.9-1.6
			c0.5-0.3,1.2-0.5,2-0.5c1,0,1.8,0.5,2.4,0.9c0.2,0.1,0.2,0.4,0.1,0.6s-0.4,0.2-0.5,0.1c-0.6-0.4-1.2-0.8-2-0.8
			c-0.7,0-1.2,0.2-1.5,0.5c-0.3,0.3-0.5,0.6-0.5,0.9c0,0.3,0.1,0.6,0.5,0.8c0.4,0.2,0.9,0.4,1.6,0.6h0c0.8,0.1,1.4,0.3,2,0.7
			c0.5,0.3,0.9,1,0.9,1.6c0,0.7-0.4,1.2-0.9,1.6c-0.6,0.4-1.2,0.6-2,0.6c-1.3,0-2.3-0.6-3-1.2C22,127.4,22,127.2,22.1,127z"/>
		<path fill="#5C6670" d="M41.4,123.9c0-1.4-1.1-2.5-2.5-2.5c-1.4,0-2.5,1.1-2.5,2.5v4.4v0c0,0,0,0,0,0v0c0,0.1-0.1,0.2-0.2,0.2
			c-0.1,0-0.1,0-0.2,0h0h0c0,0,0,0,0,0c0,0-0.1,0-0.1,0c0,0,0,0,0,0l0,0c0,0,0,0,0,0c0,0,0,0,0,0c0,0,0,0,0,0c0,0,0,0,0,0v0v0v-4.4
			c0-1.4-1.1-2.5-2.5-2.5s-2.5,1.1-2.5,2.5v4.4c0,0.1-0.1,0.2-0.2,0.3c0,0-0.1,0-0.1,0c0,0,0,0-0.1,0h0h0c-0.1,0-0.3-0.1-0.3-0.3
			v-0.1v-4.4v-0.1V121c0-0.2,0.2-0.4,0.4-0.4c0.2,0,0.4,0.2,0.4,0.4v0.8c0.6-0.7,1.5-1.2,2.5-1.2c1.3,0,2.3,0.7,2.9,1.7
			c0.6-1,1.7-1.7,2.9-1.7c1.8,0,3.3,1.5,3.3,3.3v4.4c0,0.2-0.2,0.4-0.4,0.4c-0.2,0-0.4-0.2-0.4-0.4V123.9z"/>
		<path fill="#5C6670" d="M48,120.6c2.1,0,3.8,1.8,3.8,4c0,2.2-1.7,4-3.8,4c-2.1,0-3.8-1.8-3.8-4C44.2,122.5,45.9,120.6,48,120.6z
			 M48,127.9c1.6,0,3-1.5,3-3.2s-1.4-3.3-3-3.3s-3,1.5-3,3.3S46.4,127.9,48,127.9z"/>
		<path fill="#5C6670" d="M64.3,127.1c-0.7,1-1.8,1.6-3.1,1.6c-2.1,0-3.9-1.8-3.9-4c0-2.2,1.7-4,3.9-4c1.3,0,2.4,0.6,3.1,1.6V121
			c0-0.2,0.2-0.4,0.4-0.4c0.2,0,0.4,0.2,0.4,0.4v3.4v0.2v0.2v6.9c0,0.2-0.2,0.4-0.4,0.4c-0.2,0-0.4-0.2-0.4-0.4V127.1z M61.2,127.9
			c1.7,0,3.1-1.5,3.1-3.2c0-1.8-1.4-3.2-3.1-3.2c-1.7,0-3.1,1.4-3.1,3.2C58.1,126.4,59.5,127.8,61.2,127.9z"/>
		<path fill="#5C6670" d="M67.6,121c0-0.2,0.2-0.4,0.4-0.4c0.2,0,0.4,0.2,0.4,0.4v4.4c0,1.4,1.1,2.5,2.5,2.5c1.4,0,2.5-1.1,2.5-2.5
			V121c0-0.2,0.2-0.4,0.4-0.4c0.2,0,0.4,0.2,0.4,0.4v4.4c0,1.8-1.5,3.3-3.3,3.3c-1.8,0-3.3-1.5-3.3-3.3V121z"/>
		<path fill="#5C6670" d="M76.4,124.7c0-2.2,1.7-4.1,3.9-4.1c2.1,0,3.7,1.6,3.9,3.8v0v0c0,0.2-0.2,0.4-0.4,0.4h-6.6
			c0.1,1.8,1.5,3.1,3.1,3.1c1.1,0,2.1-0.6,2.6-1.5c0.1-0.2,0.4-0.2,0.5-0.1c0.2,0.1,0.2,0.4,0.1,0.6c-0.7,1.1-1.9,1.8-3.3,1.8
			C78.1,128.7,76.4,126.9,76.4,124.7z M77.2,124h6.1c-0.3-1.5-1.6-2.6-3-2.6C78.8,121.4,77.5,122.5,77.2,124z"/>
		<path fill="#5C6670" d="M92.8,121c0,0.2-0.2,0.4-0.4,0.4h-1v5.9c0,0.4,0.4,0.6,0.6,0.6c0.2,0,0.4,0.2,0.4,0.4
			c0,0.2-0.2,0.4-0.4,0.4c-0.8,0-1.4-0.6-1.4-1.4v-5.9h-1c-0.4,0-0.4-0.2-0.4-0.4s0-0.4,0.4-0.4h1v-3c0-0.2,0.2-0.4,0.4-0.4
			c0.2,0,0.4,0.2,0.4,0.4v3h1C92.6,120.6,92.8,120.8,92.8,121z"/>
		<path fill="#5C6670" d="M95.4,121c0-0.2,0.2-0.4,0.4-0.4c0.2,0,0.4,0.2,0.4,0.4v4.4c0,1.4,1.1,2.5,2.5,2.5c1.4,0,2.5-1.1,2.5-2.5
			V121c0-0.2,0.2-0.4,0.4-0.4c0.2,0,0.4,0.2,0.4,0.4v4.4c0,1.8-1.5,3.3-3.3,3.3c-1.8,0-3.3-1.5-3.3-3.3V121z M97.6,119.2
			c0-0.1,0-0.1,0.1-0.2l1-1.5c0.1-0.2,0.3-0.3,0.5-0.3c0.3,0,0.7,0.2,0.7,0.4c0,0.1-0.1,0.2-0.2,0.3l-1.3,1.3
			c-0.2,0.2-0.3,0.2-0.5,0.2C97.7,119.3,97.6,119.2,97.6,119.2z"/>
	</g>
</g>
</svg>
